{
    "asset" : {
        "generator" : "Khronos glTF Blender I/O v3.2.40",
        "version" : "2.0"
    },
    "scene" : 0,
    "scenes" : [
        {
            "name" : "Scene",
            "nodes" : [
                0
            ]
        }
    ],
    "nodes" : [
        {
            "mesh" : 0,
            "name" : "Suzanne"
        }
    ],
    "materials" : [
        {
            "name" : "Suzanne",
            "pbrMetallicRoughness" : {
                "baseColorTexture" : {
                    "index" : 0
                },
                "metallicRoughnessTexture" : {
                    "index" : 1
                }
            }
        }
    ],
    "meshes" : [
        {
            "name" : "Suzanne",
            "primitives" : [
                {
                    "attributes" : {
                        "POSITION" : 0,
                        "NORMAL" : 1,
                        "TEXCOORD_0" : 2
                    },
                    "indices" : 3,
                    "material" : 0
                }
            ]
        }
    ],
    "textures" : [
        {
            "sampler" : 0,
            "source" : 0
        },
        {
            "sampler" : 0,
            "source" : 1
        }
    ],
    "images" : [
        {
            "mimeType" : "image/png",
            "name" : "Suzanne_BaseColor.png",
            "uri" : "Suzanne_BaseColor.png"
        },
        {
            "mimeType" : "image/png",
            "name" : "Suzanne_MetallicRoughness.png",
            "uri" : "Suzanne_MetallicRoughness.png"
        }
    ],
    "accessors" : [
        {
            "bufferView" : 0,
            "componentType" : 5126,
            "count" : 11808,
            "max" : [
                1.3369139432907104,
                0.9501950144767761,
                0.8256840109825134
            ],
            "min" : [
                -1.3369139432907104,
                -0.9746090173721313,
                -0.8007810115814209
            ],
            "type" : "VEC3"
        },
        {
            "bufferView" : 1,
            "componentType" : 5126,
            "count" : 11808,
            "type" : "VEC3"
        },
        {
            "bufferView" : 2,
            "componentType" : 5126,
            "count" : 11808,
            "type" : "VEC2"
        },
        {
            "bufferView" : 3,
            "componentType" : 5123,
            "count" : 11808,
            "type" : "SCALAR"
        }
    ],
    "bufferViews" : [
        {
            "buffer" : 0,
            "byteLength" : 141696,
            "byteOffset" : 0
        },
        {
            "buffer" : 0,
            "byteLength" : 141696,
            "byteOffset" : 141696
        },
        {
            "buffer" : 0,
            "byteLength" : 94464,
            "byteOffset" : 283392
        },
        {
            "buffer" : 0,
            "byteLength" : 23616,
            "byteOffset" : 377856
        }
    ],
    "samplers" : [
        {
            "magFilter" : 9729,
            "minFilter" : 9987
        }
    ],
    "buffers" : [
        {
            "byteLength" : 401472,
            "uri" : "Suzanne.bin"
        }
    ]
}
